<?xml version="1.0" encoding="UTF-8"?>
<svg version="1.1" viewBox="0 0 2048 512" width="800" height="200" xmlns="http://www.w3.org/2000/svg">
<path transform="translate(1737,12)" d="m0 0 2 2 3 7v41l-4 16-6 15-9 14-11 13-12 12-18 13-13 8-17 9-17 7-22 7-27 6-31 5-17 2-19 1h-59l-37-1-85-5-22-1-41-1h-19l-26 1-28 3-23 5-18 5-16 7-12 9-4 6-1 4 3 5 7 3 32 5 18 5 16 7 8 6 7 8 3 8-1 8-5 9-4 5-11 8-13 6-10-2-20-10 3 12 1 9v21l-3 17-5 16-7 14-12 17-13 18-5 5 2-6 13-23 6-13 8-24 3-14 1-12v-10l-2-12-5-13-4-6-6-5-10-2-1-3 3-8-1-5-8-5h-12l-5 1 2-4 3-5-1-6-5-2h-2l-2 6-8 7h-1v-7l4-6 5-5 10-5 6 1 5 7v6l1 1 14 2 5 3 2 6v11l7 4 8 7 3 4 11-3 6-1 12 7 12 4 4-1 4-5 1-2v-12l-6-9-14-9-18-8-32-6-10-4-7-8-1-3v-11l4-8 10-10 13-8 14-6 21-6 23-4 31-3h58l62 3 41 3 35 2 33 1h46l30-2 27-4 36-8 30-10 25-12 15-9 15-11 11-9 10-10 11-14 8-13 5-11 4-13 1-7z" fill="#F2AC5F"/>
<path transform="translate(329,141)" d="m0 0 1 4-8 15-1 3v13l4 8 9 8 15 8 16 5 26 2 39-1h25l7 3 3 4-1 6-9 10-7 7-15 6-6 8-5 11-1 4v13l4 3 8-1 11-4 14-9 17-12 23-15 17-8 16-4h11l7 2 9 10 4-1 17-13 14-9 13-6 3-1h8l8 4 7 9 2 6v11l-3 6-4 7 25-5 27-3v-3l-6-2-12-5-4 1h-4l-2-3-10-4 4-7 5-7h8l16 5 22 11 21 9 21 7 10 4-2 5-5 9-30-4h-31l-30 4-45 8h-26l-10-3-9-5-7-5-6 1-3 2-3-1 5-7 1-3-5-2-9-4-10-1-12 3-16 8-20 12-16 11-15 10-7 3h-13l-6-5-2-4v-14l5-15 6-10 9-10 8-6 5-2 1-5h-17l-39 1h-24l-13-1-18-6-11-7-7-7-6-12-1-4v-9l2-10 8-16zm278 85-15 2-18 12-8 6 1 3 7 5 10 3h23l10-3 4-4v-13l-4-8-3-2z" fill="#F2AC5F"/>
<path transform="translate(293,14)" d="m0 0 8 1 1 2-2 18v11l2 18 5 16 9 16 11 14 11 12 13 11 21 14 27 14 15 6 24 7 40 8 23 3 19 1h60l27-1 85-7 53-3 22-1h46l32 3 25 5 21 7 14 8 9 7 6 7 3 6v12l-5 8-8 5-16 4-18 4-14 5-11 6-10 8-5 7-1 3v7l3 6 1 3 6 1 10-3 13-7h7l10 4v3l-10 7-12 5-4 1h-8l-11-4-9-7-7-8-3-6-1-4v-7l3-8 9-10 10-6 19-7 19-4 19-3 11-4 2-2-1-7-4-6-13-9-12-5-22-6-21-4-25-3h-73l-82 6-54 3-57 2h-23l-35-2-31-4-22-4-26-7-17-6-25-12-18-11-13-10-15-14-9-10-8-13-8-18-3-10-2-19 1-14 3-19 1-6-5-1z" fill="#F2AC5F"/>
<path transform="translate(1711,138)" d="m0 0 4 4 8 16 1 6v13l-4 10-7 9-11 8-14 6-13 3-8 1h-26l-16-1h-33l-2 3 11 8 8 7 9 13 5 13 1 5v10l-4 8-5 4h-10l-10-4-10-6-17-12-18-11-15-8-16-5h-8l-11 4-6 4 1 4 4 4v2l-5-1-3-2-5 1-13 9-7 3-11 2h-15l-57-9-19-2h-35l-19 3h-11l-6-10-1-4 14-4 22-8 28-13 14-7 16-5 4 1 6 9 3 4-14 7-4 1-6 1-14 6h-2v2l39 5 16 3-7-10-2-4v-8l4-10 8-9 5-2h8l13 4 13 7 14 11 8 6 4-1 9-8 4-2 8-1 15 2 20 8 14 8 14 9 26 18 13 6 10 1 4-4v-11l-5-13-6-10-20-10-10-10-3-6 1-5 5-5 13-2 14 1h52l21-4 15-6 13-9 7-10 2-6-1-9-5-12zm-284 83-6 5-4 10 2 9 5 5 4 1h30l12-6 4-3-2-4-10-7-13-8-6-2z" fill="#F2AC5F"/>
<path transform="translate(1063,229)" d="m0 0h9l5 3 4 6 1 8-2 10-4 10-3 3 1-5 3-11-1-7-5-4h-8l-11 4-16 11-11 9-4 4v10l5 24 7 21-2 2 1 5 4 8 2 25 2 16 5 12 3 5 6 3h10l3-3-1-9-8-21-6-16-1-8 4-8h4l11 10 8 7 12 14 7 11 4 10 3 12v9l-3 12-5 12-9 14-8 10-20 20-11 9-12 9h-5l4-4 9-7 10-9 12-11 3-3h2v-2h2l2-4 8-9 6-10 5-16v-10l-4-15-11-19-5-6h-2l3 11 1 11-2 10-4 7-8 7-2 1h-9l-9-6-9-14-3 4-7 10-5 6-6 4h-17l-8-6-5-10v-21l4-22v-3l-7 10-4 9-10 32-7 8-6 1-6-8-5-11-1-4v-9l4-16 2-2-1 9-2 8 1 9 4 10 2 3 6 1 3-5 6-15 5-16 11-19 9-8 5-1-1 14-3 13-1 6v16l4 8 4 3 4 1h8l10-5 7-8 3-7-1-20-4-18-1-4 3-5 1-5h-3l-5-13-3-13-3-19-2-17-5-12-6-7-9-4-4-1h-7l-11 4-10 7-7 10-1 3 20 2 3 2 1 3v8l-4 11-8 7h-7l-5-5-5-9-1-6v-13l4-11 7-12 9-8 10-5 3-1h16l10 3 7 6 5 10 2 6 7-7 14-11 8-6 12-6zm-104 57v4l4 3h5l1-4z" fill="#F2AC5F"/>
<path transform="translate(1269,237)" d="m0 0 3 3 6 13h-2l-3 32-1 22-1 71-3 21-5 8-3 3-3 1h-11l-8-4-12-12-2-1-1 42-3 9-6 5-6 2h-15l-46-9-9-3-5-8-3-5 1-3 11 3 12 2h11l12-7 13-12 4-7-1-4-14-3-26-2 2-4 12-4h21l8 6 6 10 2 7v9l-4 8-7 8 12-2 6-4 2-10 1-30 1-14 3-10 4 4 5 11 2 10 1 3 5 2 3 1h13l6-5 2-6 1-14 2-83 1-20 2-8 1-13z" fill="#F2AC5F"/>
<path transform="translate(770,239)" d="m0 0 2 2 3 11 2 15 1 4 2 52 2 58 2 8 4 7v2h17l6-4 3-3 2-10 5-13 3 1 2 6 1 8 2 32 2 15 3 3 16 5-2-4-5-5-4-6-2-6 1-6 7-14 7-8 6-3h8l19 5 5 2v2l-22 3-13 1-5 2-1 4 4 8 7 7 13 9 5 2h9l25-5-1 5-7 11-6 2-41 9-8 1h-17l-8-4-3-5-1-10-2-30-1-9h-2l-2 4-7 8-8 5-7 2-8-1-7-6-3-8-2-23-1-18-2-69-2-23-2-9 1-6z" fill="#F2AC5F"/>
<path transform="translate(577,276)" d="m0 0 1 4-3 9-1 13 3 9 7 8 9 4 22 4 18-2 23-5 26-8 30-10 10-1 6 2 3 6 4 13 3 2 7-1 6-4-1-9-4-7 2-6 6-11 2 2 3 12v19l-4 11-8 7-7 3h-10l-5-4-6-18-9 1-48 16-25 6-13 2h-21l-13-4-9-6-7-8-4-9v-19l5-16z" fill="#F2AC5F"/>
<path transform="translate(1463,271)" d="m0 0 3 4 5 16v17l-5 12-6 7-9 6-13 4h-29l-26-6-24-7-24-8-14-3-1 10-5 10-6 4-9-1-8-4-7-8-3-9v-20l3-11 3 1 6 12-1 5-3 9 1 5 6 4h7l4-8 3-10 5-4 2-1 11 1 43 14 31 7 15 2h9l21-4 10-5 6-7 2-6v-12l-3-13z" fill="#F2AC5F"/>
<path transform="translate(892,372)" d="m0 0 15 15 8 10 14 15 7 8 13 10 7-4 8-8 5-2 6 1-2 6v7l6 8 10 5 13 2-1 12 4 8 2 1h10l10-4 3 1-6 8 2 5 5 3h2l2-5 4-5 4-3h2l-1 7-6 10-8 5-8 2-6-4-2-3-1-6-8 2-10-4-4-5v-12l1-4h-7l-11-4-9-7-3-4-1-6-11 4h-9l-9-6-16-17-11-14-13-26z" fill="#F2AC5F"/>
<path transform="translate(918,251)" d="m0 0v3l-9 15-7 14-3 9-1 8 1 8 9-4 7 1 6 5 6 10 1 4 4 1 4 5-1 4-5 8-6 1-22 10h-8l-6-4-5-6-1-3v-8l6-12 2-5-2-9v-10l1-10 6-11 12-13zm-7 64-6 5 2 4 4 4h8l2-2v-6l-5-5zm-16 16-4 4-1 5 1 3 3 1 9-5 1-3-4-5z" fill="#F2AC5F"/>
<path transform="translate(825,200)" d="m0 0 7 1 21 7 23 11 2 3-9-1-27-10-6-2h-5l-7 5 2 5 3 4-11-2-8-5-2-2 1-5 5-5z" fill="#F2AC60"/>
<path transform="translate(1207,199)" d="m0 0h15l8 5 2 3v5l-7 5-11 4-3-1 5-4v-5l-6-4-6-1-28 11-10 4-4-1 10-6 17-9 13-5z" fill="#F2AC60"/>
<path transform="translate(1408,281)" d="m0 0 4 1 6 7 4-1 5-4 4 1 6 5 2 5-5 5-5 4-4-2-6-7-4 1-5 5h-5l-7-9 1-4z" fill="#F2AC5F"/>
<path transform="translate(1679,159)" d="m0 0 6 1 8 4 1 4-6 10-2 1-10-5h-2l-5 9-5 1-10-6 2-6 5-8 13 6 2-5z" fill="#F2AC5F"/>
<path transform="translate(357,167)" d="m0 0 5 5 3 5v2l9-5 4-1 6 9 1 5-11 6-4-1-5-9-6 2-8 4-6-12v-3z" fill="#F2AC5F"/>
<path transform="translate(629,286)" d="m0 0 5 1 8 6-1 5-7 9-4-1-7-6-3 1-7 9-9-6-2-2 1-5 6-7 3-1 9 7h2z" fill="#F2AC5F"/>
<path transform="translate(748,357)" d="m0 0 5 1 8 6v4l-8 9-12-6-6 8-7-1-7-5 1-4 7-9h4l8 6 2 1 2-4z" fill="#F2AC5F"/>
<path transform="translate(1290,353)" d="m0 0 4 2 5 7 4-1 7-6h3l4 6 4 5-1 3-10 7-4-1-6-8-5 3-4 3-5-2-6-9 4-5z" fill="#F2AC5F"/>
<path transform="translate(1246,258)" d="m0 0h2l3 6v2l4 2v3l-9 7 2 5 4 5-1 3-8 6h-4l-6-8 1-4 6-6-1-4-3-6 2-5z" fill="#F2AC5F"/>
<path transform="translate(796,261)" d="m0 0 7 6 2 4-4 9 2 4 5 4-1 6-4 6h-5l-8-7 2-5 3-5v-3l-8-5 1-4 4-6z" fill="#F2AC5F"/>
<path transform="translate(1192,311)" d="m0 0 26 5 22 6 9 4 5 4 2 5-5 5-2-1v-8l-17-6-31-7-9-4z" fill="#F2AD61"/>
<path transform="translate(845,314)" d="m0 0h5l-1 3-15 5-15 3-9 3-16 5-2 1 1 7-4 1-2-3 1-6 6-5 16-6 30-7z" fill="#F2AC5F"/>
<path transform="translate(957,454)" d="m0 0 6 1 16 12 11 9 13 11 9 7v1h-6l-11-8-14-12-13-10-11-8z" fill="#F2AC5F"/>
<path transform="translate(992,272)" d="m0 0 5 2 5 3-2 6-2 5 7 4 1 2-5 8-6-1-4-3 1-5 2-6-6-3v-5z" fill="#F2AC5F"/>
<path transform="translate(733,276)" d="m0 0h3v3l-6 3-30 8-27 8-3 1v-4l9-4 41-12z" fill="#F2AC60"/>
<path transform="translate(1221,334)" d="m0 0 5 3 6 7-2 4-8 7-4-1-7-9 1-4z" fill="#F2AC5F"/>
<path transform="translate(520,261)" d="m0 0 4 1v8l-7 1-6 9-4 7h-2l-4-6-5-3v-7l4-4 10 10 1-5 4-6z" fill="#F2AC60"/>
<path transform="translate(792,198)" d="m0 0 4 1v8l-8 2-10 15-2-1-2-5-6-3-1-6 3-4 5 1 4 7 4-4 6-8z" fill="#F2AC5F"/>
<path transform="translate(1054,426)" d="m0 0 4 1 1 5-1 2-6 2-6 8-4 7h-2l-4-6-5-2-1-3 2-7h5l6 7 3-4 4-6z" fill="#F2AC5F"/>
<path transform="translate(1303,273)" d="m0 0h7l32 8 26 8 3 3h-8l-43-12-12-3-5-2z" fill="#F2AC60"/>
<path transform="translate(566,205)" d="m0 0 4 2 6 7-1 5-7 5h-6l-6-8 1-4z" fill="#F2AC60"/>
<path transform="translate(1518,254)" d="m0 0 5 2 6 9 2 5 8-9 4 1 3 5-2 4-7 5-2 5-3-3-6-10-3-4-7-3 1-6z" fill="#F2AC5F"/>
<path transform="translate(696,338)" d="m0 0h6l-1 8-7 1-9 15-2 1-5-7-4-1-1-7 3-4 4 2 5 6 2 1 2-6 6-8z" fill="#F2AC5F"/>
<path transform="translate(819,337)" d="m0 0 5 2 5 5 1 4-7 9-4-1-8-6v-4z" fill="#F2AC5F"/>
<path transform="translate(1246,195)" d="m0 0 5 2 7 8 3 5 6-8h4l2 8-4 4-6 5h-2l-7-12-3-2-6-2-1-6z" fill="#F2AC5F"/>
<path transform="translate(1341,333)" d="m0 0 4 1 7 8 3 5h2l5-8 4 2 2 7-1 2-6 2-3 7-3-3-5-9-4-4-7-3v-5z" fill="#F2AC5F"/>
<path transform="translate(1472,199)" d="m0 0 4 1 8 7-1 4-6 7-6-1-7-5 1-5z" fill="#F2AC5F"/>
<path transform="translate(737,196)" d="m0 0h7l-4 4-51 14-3-1 7-5 24-7z" fill="#F2AC5F"/>
<path transform="translate(1092,281)" d="m0 0 4 1-8 5-17 5-9 2-13 4h-8l4-4 22-7z" fill="#F2AC5F"/>
<path transform="translate(1118,446)" d="m0 0 20 4 31 8 5 5-8-1-44-11-5-3z" fill="#F2AC5F"/>
<path transform="translate(922,447)" d="m0 0h3l-1 3-9 4-31 8-14 4v-3l8-4 28-8z" fill="#F2AC5F"/>
<path transform="translate(1100,292)" d="m0 0 4 2 8 7 9 10 8 7 13 14-1 3-9-7-20-20-9-11-3-3z" fill="#F2AD61"/>
<path transform="translate(1507,203)" d="m0 0 36 8 19 6 2 4-17-4-29-7-9-4z" fill="#F2AC5F"/>
<path transform="translate(991,306)" d="m0 0h3l1 2v6l-7 5-17 5-7 1-3 2-11 2h-4l1-3 16-5 26-7 2-1z" fill="#F2AC5F"/>
<path transform="translate(539,279)" d="m0 0 7 1 2 2-1 6-5 8-3 2h-6l5-4 2-4-10 3-2 1 2-6 5-8z" fill="#F2AD62"/>
<path transform="translate(527,211)" d="m0 0h5l-3 3-11 4-29 7-11 3-2-2 8-4 24-7z" fill="#F2AD61"/>
<path transform="translate(1183,334)" d="m0 0 5 1 5 3-1 9 3 6-1 7-6 6h-6l-12-6-1-2 12 3 7-1 3-3-1-7-11-6v-3l9 2-1-5-4-2z" fill="#F2AE62"/>
<path transform="translate(412,232)" d="m0 0h8l-3 3-24 7-26 7-4 1 2-4 17-6z" fill="#F2AD61"/>
<path transform="translate(1497,273)" d="m0 0h8l4 5 4 9-5-2-8-3 4 6 3 4-7-2-6-7-1-8z" fill="#F2AC5F"/>
<path transform="translate(1297,192)" d="m0 0 17 3 26 7 9 4 2 1v2l-10-2-27-7-12-3-5-3z" fill="#F2AC5F"/>
<path transform="translate(851,338)" d="m0 0h8l-3 2-3 1 1 3 8-1v3l-9 6-1 7 1 3 7 1 9-2 5-1-1 2-15 6-6-1-4-6-1-6 2-2v-13z" fill="#F2AE63"/>
<path transform="translate(1621,223)" d="m0 0 23 5 22 6 9 4 1 2-7-1-39-10-9-4z" fill="#F2AC5F"/>
<path transform="translate(939,235)" d="m0 0h18l-3 2-20 5-3 1v3l4 3-1 3-8 1-4-5 6-8z" fill="#F2AE64"/>
<path transform="translate(1121,347)" d="m0 0h2l-3 12-2 7v7l1 2 8-1-5 10-2 1-6-5v-14l5-15z" fill="#F2AC5F"/>
<path transform="translate(1107,328)" d="m0 0h4l-1 5-6 5-5 8-4-1-5-5-1-5 4-3 4 4v2l3-1 6-8z" fill="#F2AD62"/>
<path transform="translate(1074,308)" d="m0 0 5 2 2 4-5 4-8 3-5-4-2 4h-5l1-3 3-2 2-7 3 1 2 4 2 1 1-3zm0 4-1 2h3v-2z" fill="#F2AF66"/>
<path transform="translate(902,359)" d="m0 0 5 2 10 9 18 18-1 4-11-11-8-7-14-13z" fill="#F2AC5F"/>
<path transform="translate(1055,263)" d="m0 0 4 1 1 8h-3l-4 1-4 5h-2l-1-12z" fill="#F2AC5F"/>
<path transform="translate(1015,372)" d="m0 0 2 1v11l-1 1h-12l-1-8 6 2z" fill="#F2AC5F"/>
<path transform="translate(953,362)" d="m0 0 2 1-3 7 5-3 3 1v3l2-3 4 1-4 6-5 2-5-3-3-4 1-5z" fill="#F2AE63"/>
<path transform="translate(879,262)" d="m0 0h2l-1 5-8 7-6 2h-9l-4-2 11-2 10-6z" fill="#F2AC5F"/>
<path transform="translate(1160,261)" d="m0 0 5 1 7 6 7 2 12 1v1l-7 1h-12l-10-6-3-4z" fill="#F2AC5F"/>
<path transform="translate(1300,211)" d="m0 0 5 1v3h-3l5 5v6l-2 2h-7l-7-4 1-2 4 2h5l1-3-4-6v-3z" fill="#F2AC5F"/>
<path transform="translate(963,336)" d="m0 0h2v10l-8 6-10 7-3 1 1-3 11-8 3-3v-6z" fill="#F2AC60"/>
<path transform="translate(929,266)" d="m0 0v3l-5 10 1 7 2 4-2 2h-4l-4-6v-2l3-3 6-12z" fill="#F2AC60"/>
<path transform="translate(850,353)" d="m0 0h1l2 9 7 1 9-2 5-1-1 2-15 6-6-1-4-6-1-5z" fill="#F2AF65"/>
<path transform="translate(735,215)" d="m0 0h7v3l-5 6 1 4 6-1 4-2-2 4-4 3-5 1-4-4v-5l3-3z" fill="#F2AC5F"/>
<path transform="translate(1e3 337)" d="m0 0 5 1 2 6v2h-2v10h-1l-1-12z" fill="#F2AC5F"/>
<path transform="translate(735,215)" d="m0 0h7v3l-4 4-2-1z" fill="#F2AE63"/>
<path transform="translate(1116,422)" d="m0 0v3z" fill="#F2AC5F"/>
<path transform="translate(851,273)" d="m0 0 2 1z" fill="#F2AC5F"/>
<path transform="translate(1710,136)" d="m0 0" fill="#F2AC5F"/>
<path transform="translate(1056,273)" d="m0 0" fill="#F2AC5F"/>
<path transform="translate(850,272)" d="m0 0" fill="#F2AC5F"/>
<path transform="translate(1072,269)" d="m0 0" fill="#F2AC5F"/>
<path transform="translate(930,265)" d="m0 0" fill="#F2AC5F"/>
<path transform="translate(931,264)" d="m0 0" fill="#F2AC5F"/>
<path transform="translate(932,263)" d="m0 0" fill="#F2AC5F"/>
<path transform="translate(1098,262)" d="m0 0" fill="#F2AC5F"/>
<path transform="translate(919,250)" d="m0 0" fill="#F2AC5F"/>
<path transform="translate(920,249)" d="m0 0" fill="#F2AC5F"/>
<path transform="translate(1709,135)" d="m0 0" fill="#F2AC5F"/>
</svg>
